<svg width="256" height="256" viewBox="0 0 256 256" fill="none" xmlns="http://www.w3.org/2000/svg">
<rect width="256" height="256" fill="#F1E5D1"/>
<path d="M38.1574 159.861C38.1574 153.609 38.931 148.426 40.4783 144.313C41.8536 140.2 43.6587 136.827 45.8936 134.195C47.6127 132.056 49.5038 130.329 51.5668 129.012C53.6298 127.696 55.6927 126.709 57.7556 126.051C59.8185 125.393 61.7956 125.064 63.6867 125.064C67.9845 125.064 71.3369 126.545 73.7436 129.506C76.1504 132.303 77.3539 135.429 77.3539 138.884C77.3539 142.174 76.2364 145.136 74.0015 147.768C71.7666 150.401 68.5862 151.717 64.4603 151.717C60.6782 151.717 57.4977 150.483 54.919 148.015C52.1685 145.547 50.6213 142.421 50.2774 138.637C48.0425 139.295 46.1514 141.352 44.6042 144.807C42.8851 148.097 42.0255 152.293 42.0255 157.393C42.0255 165.784 44.6902 172.694 50.0194 178.123C55.177 183.388 62.7411 186.02 72.7122 186.02C77.5258 186.02 82.4254 185.197 87.4108 183.552C92.3962 181.742 97.2959 178.37 102.109 173.434C101.594 170.637 101.25 167.758 101.078 164.796C100.734 161.835 100.562 159.614 100.562 158.133C100.562 155.172 101.078 152.786 102.109 150.976C103.141 149.167 104.602 148.262 106.493 148.262C108.041 148.262 109.244 148.92 110.104 150.236C110.963 151.388 111.393 153.033 111.393 155.172C111.393 158.298 110.705 161.588 109.33 165.043C107.783 168.498 106.579 171.213 105.72 173.187C108.642 182.729 113.456 190.462 120.16 196.384C126.693 202.308 135.977 205.269 148.011 205.269C159.873 205.269 169.93 202.308 178.181 196.384C186.433 190.462 192.794 182.565 197.264 172.694C201.562 162.658 203.711 151.47 203.711 139.131C203.711 130.411 202.68 122.185 200.616 114.452C198.381 106.555 195.201 99.645 191.075 93.7221C186.949 87.6347 182.05 82.8636 176.376 79.4085C170.531 75.9535 163.913 74.2261 156.52 74.2261C153.254 74.2261 149.128 74.8842 144.142 76.2003C138.985 77.5165 133.999 80.2312 129.186 84.3443C124.2 88.4573 120.332 94.7916 117.582 103.347L115.003 100.385C118.785 88.3752 124.888 79.8199 133.312 74.7196C141.564 69.6194 150.847 67.0693 161.162 67.0693C171.477 67.0693 181.362 70.0307 190.817 75.9537C200.272 81.8765 208.008 90.4317 214.026 101.619C219.871 112.807 222.793 126.38 222.793 142.339C222.793 153.033 221.331 163.233 218.409 172.94C215.487 182.483 211.274 190.956 205.774 198.36C200.1 205.763 193.31 211.603 185.402 215.88C177.494 220.159 168.554 222.298 158.583 222.298C149.3 222.298 141.392 220.57 134.859 217.114C128.154 213.66 122.653 209.382 118.355 204.281C114.058 199.181 110.791 194.081 108.556 188.981C106.15 183.881 104.516 179.768 103.657 176.642C101.078 182.071 98.0695 186.678 94.6311 190.462C91.021 194.081 87.153 196.878 83.027 198.854C78.7292 200.663 74.5173 201.568 70.3914 201.568C66.2654 201.568 62.3114 200.663 58.5293 198.854C54.5753 197.043 51.051 194.41 47.9565 190.956C44.8621 187.501 42.4553 183.223 40.7361 178.123C39.017 172.858 38.1574 166.771 38.1574 159.861ZM33 70.0307C33 59.8303 36.0945 51.2749 42.2834 44.365C48.3004 37.455 56.81 34 67.8126 34C73.6577 34 78.9011 35.0694 83.5427 37.2082C88.0125 39.1825 91.9665 41.9794 95.4047 45.5989C98.8431 49.0539 101.68 53.0025 103.915 57.4447C105.806 61.2287 107.869 66.2467 110.104 72.4986C112.338 78.5859 114.573 85.1669 116.808 92.2415C119.043 99.1514 121.278 105.815 123.513 112.231C125.576 118.483 127.381 123.583 128.928 127.532C131.335 133.619 134.343 138.802 137.953 143.079C141.392 147.192 145.862 149.249 151.363 149.249C155.833 149.249 159.615 148.015 162.709 145.547C165.804 143.079 168.125 140.118 169.672 136.663C171.219 133.043 171.992 129.671 171.992 126.545C171.992 125.064 171.821 123.254 171.477 121.115C170.961 118.812 170.273 116.755 169.414 114.946C168.554 113.136 167.523 112.066 166.319 111.738C165.804 114.37 164.6 117.002 162.709 119.635C160.646 122.103 157.466 123.336 153.168 123.336C149.042 123.336 145.776 122.02 143.369 119.388C140.962 116.755 139.759 113.547 139.759 109.763C139.759 105.815 141.048 102.689 143.627 100.385C146.205 97.9175 149.558 96.6836 153.684 96.6836C158.497 96.6836 162.623 98.2466 166.062 101.373C169.328 104.334 171.821 108.118 173.54 112.725C175.087 117.167 175.861 121.609 175.861 126.051C175.861 130.658 174.829 135.347 172.766 140.118C170.703 144.889 167.523 148.838 163.225 151.964C158.755 155.09 152.91 156.653 145.69 156.653C139.673 156.653 134.343 155.419 129.702 152.951C125.06 150.318 120.934 146.452 117.324 141.352C113.714 136.251 110.619 130 108.041 122.596C106.321 117.66 104.43 111.655 102.367 104.581C100.304 97.5063 98.0695 90.2671 95.6627 82.8636C93.2559 75.2955 90.5912 68.4677 87.6686 62.3804C83.7146 54.1541 79.6747 48.5604 75.5487 45.5989C71.4228 42.6375 67.211 41.1568 62.9131 41.1568C57.9275 41.1568 53.5437 42.473 49.7616 45.1054C45.8076 47.7378 42.7132 51.2749 40.4783 55.7171C38.0715 59.9948 36.8681 64.6837 36.8681 69.7839C36.8681 71.7583 37.04 73.4034 37.3838 74.7196C37.7276 76.0358 38.3293 76.8585 39.1889 77.1875C40.3923 74.8842 42.1115 73.1566 44.3463 72.0051C46.5812 70.8533 48.8161 70.2775 51.051 70.2775C54.6612 70.2775 57.6697 71.676 60.0765 74.4728C62.4833 77.1052 63.6867 80.3135 63.6867 84.0975C63.6867 87.2234 62.6551 90.1849 60.5923 92.9818C58.3574 95.7787 55.0909 97.1772 50.793 97.1772C46.3233 97.1772 42.7991 95.7787 40.2204 92.9818C37.6417 90.0203 35.8366 86.4831 34.8051 82.37C33.6017 78.0923 33 73.9793 33 70.0307Z" fill="#1a1919"/>
</svg>
