<?xml version="1.0" encoding="UTF-8"?><svg id="a" xmlns="http://www.w3.org/2000/svg" viewBox="0 0 1000 100"><path d="M1000,34.25v65.75H0V34.25c84.7,42.42,167.69,42.64,248.95.65V5.33c-.21-.07-.34-.23-.34-.57v-.14c.01-.06.02-.12.04-.18.27-1.33.72-2.85,1.28-4.44.58,1.66,1.03,3.17,1.28,4.43.02.07.03.13.04.19h0s.01.09.01.14c0,.39-.17.55-.45.61v1.81s3.93-3.94,8.63,1.09c5.98,6.41,14.7,1.56,14.7,1.56,0,0-4.54,5.57-9.17,6.23-6.38.91-8.89-3.58-14.16-.66v19.28c84.36,41.97,167.02,42.06,247.98.27V5.33c-.21-.07-.34-.23-.34-.57v-.14l.03-.18c.28-1.33.73-2.85,1.29-4.44.58,1.66,1.03,3.17,1.28,4.43.02.07.03.13.04.19h0s.01.09.01.14c0,.39-.17.55-.45.61v1.81s3.93-3.94,8.63,1.09c5.98,6.41,14.7,1.56,14.7,1.56,0,0-4.54,5.57-9.17,6.23-6.38.91-8.89-3.58-14.16-.66v19.24c84.42,42.03,167.12,42.12,248.14.27V5.33c-.22-.07-.35-.23-.35-.57,0-.05,0-.09.01-.13h0s.03-.19.03-.19c.28-1.33.73-2.85,1.29-4.44.58,1.66,1.03,3.17,1.28,4.43.02.07.03.13.04.19h0s.01.09.01.14c0,.39-.18.55-.46.61v1.81s3.94-3.94,8.64,1.09c5.98,6.41,14.7,1.56,14.7,1.56,0,0-4.54,5.57-9.17,6.23-6.38.91-8.89-3.58-14.17-.66v19.27c84.85,42.22,167.96,42.08,249.36-.42Z" fill="#231f20" stroke-width="0"/></svg>