<?xml version="1.0" encoding="UTF-8"?><svg id="a" xmlns="http://www.w3.org/2000/svg" viewBox="0 0 1000 100"><path d="M736.41,60.02c-1.54-12.23-3.08-24.47-4.62-36.7-3.9.49-5.85.73-9.74,1.21-2.89,10.51-4.35,15.77-7.3,26.28-.18.02-.27.03-.44.05-5.35-9.52-8.01-14.28-13.29-23.82-3.9.45-5.85.67-9.75,1.11,1.39,12.24,2.77,24.48,4.14,36.72-7.48.84-15.06,1.67-22.72,2.48,6.84-3.47,10.52-11.33,9.64-19.32-1.1-10-9.07-18.39-19.62-17.3-10.56,1.1-16.62,10.95-15.64,20.96.79,7.99,5.99,14.94,13.39,16.93-10.51,1.08-21.17,2.12-31.97,3.13,5.67-2.64,8.76-7.86,8.92-13.12-3.23.29-4.85.44-8.08.72-.38,4.07-3.35,6.66-7.62,7.05-5.74.52-10.01-3.36-10.7-11.36-.68-7.78,2.75-12.54,8.56-13.07,4.34-.39,7.71,1.82,8.69,5.87,3.22-.3,4.83-.45,8.05-.76-1.87-8.53-8.93-12.81-17.56-12.08-10.61.9-16.66,10.76-15.82,20.73.66,8,5.7,15.08,13.09,17.14-8.04.73-16.17,1.42-24.36,2.08.93-.88,1.48-2.15,1.37-3.5-.19-2.38-2.42-4.18-4.78-3.99-2.44.19-4.28,2.32-4.1,4.69.11,1.37.84,2.54,1.91,3.26-4.37.35-8.77.69-13.18,1.03-.17-2.28-.27-3.58-.46-6.02-7.03.53-10.55.78-17.58,1.27-.25-3.58-.37-5.36-.62-8.94,6.46-.45,9.69-.68,16.15-1.16-.19-2.61-.29-3.91-.48-6.52-6.45.48-9.67.71-16.12,1.15-.25-3.56-.37-5.35-.62-8.92,6.95-.48,10.43-.73,17.38-1.25-.2-2.61-.29-3.91-.49-6.52-10.11.75-15.16,1.11-25.28,1.79.83,12.32,1.65,24.63,2.47,36.95-3.5.24-7.01.48-10.53.7-.15-2.3-.23-3.6-.39-6.05-6.49.41-9.74.61-16.24.99-.61-10.31-1.21-20.62-1.81-30.93-3.18.18-4.76.27-7.94.45.69,12.34,1.38,24.67,2.07,37.01-7.68.43-15.4.83-23.16,1.21,7.24-2.97,11.49-10.72,11.05-18.88-.53-10.03-8-18.87-18.59-18.38-10.61.5-17.21,10-16.79,20.04.34,8.15,5.28,15.47,12.75,17.76-14.02.62-28.15,1.14-42.36,1.56-.14-4.5-.22-6.93-.37-11.61,2.69-.08,4.04-.13,6.73-.22,8.71-.3,13.58-5.65,13.29-13.14-.29-7.45-5.42-12.51-13.95-12.22-5.93.21-8.9.3-14.83.48.36,12.31.73,24.62,1.1,36.93-3.51.1-7.02.18-10.54.26-.07-2.22-.11-3.51-.17-5.92-6.5.17-9.76.25-16.27.39-.22-10.33-.44-20.65-.66-30.98-3.18.07-4.77.1-7.95.16.24,12.26.47,24.52.71,36.77-3.36.05-6.72.09-10.09.12-4.46-12.17-8.88-24.34-13.25-36.54-4.1.05-6.15.07-10.25.11-4.1,12.18-8.23,24.36-12.42,36.51-4.91,0-9.74-.02-14.51-.03,3.5-12.11,6.98-24.24,10.41-36.38-3.48.01-5.21.02-8.69.02-2.47,10.45-3.72,15.68-6.24,26.13h-.34c-2.75-10.46-4.11-15.69-6.82-26.15-2.97-.01-4.46-.01-7.43-.03-2.8,10.42-4.22,15.62-7.07,26.03h-.31c-2.43-10.45-3.63-15.68-6.02-26.13-3.47-.04-5.21-.06-8.68-.1,3.32,12.14,6.67,24.28,10.06,36.4-9.73-.09-19.14-.2-28.25-.32,3.74-12.04,7.43-24.1,11.08-36.18-3.48-.05-5.21-.07-8.69-.13-2.67,10.4-4.01,15.61-6.72,26.01-.14,0-.2,0-.34-.01-2.55-10.5-3.82-15.76-6.34-26.26-2.97-.07-4.46-.1-7.43-.17-2.99,10.36-4.5,15.54-7.54,25.89h-.32c-2.23-10.5-3.34-15.74-5.54-26.24-3.47-.1-5.21-.15-8.68-.26,3.11,12.28,6.27,24.55,9.46,36.81-6.79-.14-13.39-.29-19.81-.46.06-2.07.11-3.36.18-5.67-7.04-.23-10.57-.36-17.61-.64.14-3.58.21-5.37.34-8.95,6.48.25,9.72.37,16.19.59.09-2.62.13-3.92.22-6.54-6.46-.22-9.69-.34-16.15-.59.14-3.57.21-5.36.35-8.94,6.96.28,10.45.4,17.41.64.09-2.62.13-3.93.22-6.54-10.13-.34-15.19-.53-25.32-.95-.51,12.28-1.02,24.57-1.53,36.85-3.34-.1-6.62-.21-9.85-.32-2.79-5.61-4.26-8.59-7.11-14.38,4.39-1.63,6.93-5.24,7.16-10.37.34-7.45-4.38-12.46-12.91-12.88-5.93-.29-8.9-.44-14.82-.76-.66,12.39-1.34,24.79-2,37.19-9.54-.44-18.5-.9-26.93-1.38,9.45-.5,16.29-8.18,16.83-17.72.58-10.33-6.37-19.47-17.2-19.8-5.36-.34-8.05-.51-13.41-.87-.84,12.46-1.68,24.91-2.52,37.38-4.09-.27-8.03-.54-11.83-.82.88-12.46,1.76-24.91,2.65-37.37-3.16-.22-4.74-.33-7.9-.57-.69,9.42-1.04,14.13-1.73,23.54-.13-.01-.2-.01-.33-.02-4.86-8.23-9.69-16.49-14.47-24.77-2.79-.22-4.18-.33-6.96-.55-1,12.35-1.99,24.69-2.99,37.04-3.49-.35-6.81-.7-9.96-1.04-3.25-12.63-6.47-25.25-9.64-37.9-4.09-.36-6.13-.54-10.21-.92-5.11,11.3-10.24,22.58-15.42,33.84C3.69,65.3,0,62.32,0,62.32v37.68h1000V0s-107.31,40.61-263.59,60.02ZM43.97,44.25c.12.02.18.02.3.03,1.34,5.82,2.02,8.74,3.38,14.56-3.83-.34-5.75-.51-9.59-.86,2.38-5.49,3.56-8.23,5.91-13.73ZM32.63,70.51c.99-2.27,1.68-3.86,2.84-6.54,5.46.5,8.19.74,13.65,1.22.76,3.19,1.16,4.93,1.87,7.87-7.03-.86-13.11-1.72-18.36-2.55ZM77.61,75.88c.72-9.26,1.09-13.97,1.82-23.31.11.01.16.02.27.03,4.84,8.25,9.71,16.48,14.62,24.69-5.93-.46-11.49-.93-16.71-1.41ZM126.71,72.77c-2.03-.12-3.05-.19-5.09-.32.62-9.55.93-14.33,1.55-23.88,2.02.13,3.04.19,5.07.32,7.05.44,10.57,4.25,10.07,12.57-.5,8.36-4.47,11.76-11.6,11.31ZM164.42,81.38c.26-5.08.4-7.74.66-12.93,2.34.12,3.5.18,5.84.29,2.52,5.29,3.83,8.02,6.3,13.15-4.37-.16-8.64-.33-12.8-.51ZM177.9,57.1c-.18,3.72-2.5,5.48-7.07,5.25-2.17-.1-3.26-.16-5.42-.27.23-4.54.34-6.81.58-11.35,2.14.11,3.22.17,5.36.27,4.6.23,6.73,2.37,6.55,6.1ZM249.87,83.91c2.91-9.04,4.47-13.9,7.44-23.29.11,0,.17,0,.29.01,2.54,9.48,3.88,14.41,6.37,23.53-4.79-.08-9.49-.16-14.1-.25ZM309.29,84.69c2.71-9,4.17-13.89,6.96-23.27h.3c2.71,9.42,4.14,14.32,6.78,23.35-4.75-.02-9.43-.05-14.04-.08ZM363.86,56.87c.11,0,.17,0,.29,0,1.92,5.66,2.88,8.49,4.81,14.15-3.85.05-5.77.07-9.62.1,1.82-5.7,2.72-8.55,4.52-14.24ZM360.05,84.87h-5.11c.89-2.78,1.44-4.47,2.42-7.55,5.48-.04,8.21-.07,13.69-.14,1.07,3.11,1.64,4.79,2.63,7.65-4.54.03-9.08.04-13.63.04ZM434.31,53.28c2.15-.07,3.23-.11,5.37-.18,4.6-.16,6.91,2.25,7.05,5.99.13,3.72-2.01,6.36-6.59,6.52-2.17.07-3.25.11-5.42.18-.16-5.01-.24-7.51-.41-12.51ZM473,64.09c-.35-7.95,3.23-12.41,9.02-12.69,5.77-.27,9.77,3.84,10.17,11.78.39,7.95-3.21,12.44-9.02,12.72-5.83.27-9.82-3.87-10.17-11.81ZM665.97,62.1c-5.81.61-10.03-3.3-10.82-11.21-.8-7.91,2.52-12.57,8.29-13.17,5.75-.6,9.98,3.27,10.82,11.18.85,7.91-2.49,12.6-8.29,13.2ZM703.18,63.98c-1.08-9.36-1.64-14.23-2.75-23.78.13-.01.19-.02.31-.03,4.94,9.09,7.45,13.69,12.37,22.66-3.29.39-6.6.77-9.93,1.15ZM718.72,62.17c2.68-9.84,4.04-14.89,6.7-24.86.13,0,.19-.02.31-.04,1.18,9.51,1.78,14.36,2.92,23.7-3.29.4-6.6.8-9.93,1.2Z" fill="#231f20" stroke-width="0"/></svg>