<?xml version="1.0" encoding="UTF-8"?><svg id="a" xmlns="http://www.w3.org/2000/svg" viewBox="0 0 1000 100"><path d="M1000,0H0v100s157.69-36.22,361.5-55.72c.86,7.75,1.32,11.93,2.21,19.97,2.97-.33,4.46-.49,7.43-.81,6.39-.68,9.86-5.02,9.19-11.56-.46-4.48-2.64-7.55-6.04-8.81,4.12-.38,8.26-.75,12.42-1.11-2.5,2-3.89,5.32-3.45,9.64.69,6.81,5.32,10.32,10.91,9.78,5.57-.54,9.47-4.83,8.84-11.68-.39-4.22-2.31-7.17-5.04-8.69,2.51-.21,5.02-.41,7.54-.62.67,7.43,1.05,11.6,1.76,19.48,1.78-.16,2.66-.24,4.44-.4-.47-5.27-.7-7.91-1.17-13.19h.16c4.14,4.94,6.2,7.41,10.31,12.38,1.53-.13,2.3-.19,3.84-.32-.65-7.82-.99-12-1.6-19.32,1.33-.1,2.67-.2,4.01-.29.01.17.03.35.05.56.14,1.73-.38,3.04-.98,4.18.81.39,1.22.59,2.03.98,1.36-1.33,2.41-3.57,2.26-5.44-.02-.19-.03-.36-.04-.52.74-.05,1.49-.11,2.23-.16.05.59.09,1.16.15,1.94,2.59-.2,3.89-.3,6.49-.5.52,6.93.78,10.39,1.3,17.32,1.76-.13,2.64-.2,4.39-.33-.51-6.93-.76-10.39-1.27-17.32,2.59-.19,3.89-.28,6.49-.47-.05-.73-.09-1.27-.13-1.82,3.21-.21,6.43-.41,9.66-.6.47,7.17.75,11.35,1.26,19.09,1.78-.12,2.67-.18,4.45-.29-.22-3.47-.33-5.2-.56-8.67,3.44-.22,5.15-.33,8.59-.53-.09-1.46-.13-2.2-.22-3.66-3.44.21-5.16.31-8.6.54-.13-2-.19-3-.32-5,3.82-.25,5.73-.36,9.55-.59-.04-.67-.07-1.18-.1-1.68,2.02-.11,4.04-.22,6.07-.33-2.01,1.95-3.14,4.91-2.92,8.69.4,6.84,4.87,10.53,10.48,10.23,5.58-.3,9.66-4.43,9.32-11.3-.19-3.75-1.62-6.54-3.79-8.27,2.23-.11,4.46-.21,6.7-.31.34,7.07.54,11.25.91,18.92,1.78-.09,2.67-.13,4.45-.21-.14-2.98-.21-4.47-.34-7.45,1.3-.06,1.96-.09,3.26-.15,1.73,2.91,2.6,4.36,4.32,7.27,1.97-.08,2.95-.13,4.91-.21-1.92-3.19-2.89-4.79-4.82-7.98,2.36-1.13,3.61-3.27,3.49-6.14-.08-1.94-.75-3.52-1.93-4.65,2.61-.1,5.22-.2,7.84-.29-1.96,1.93-3.11,4.83-2.96,8.49.27,6.65,4.44,10.61,10.37,10.4,5.31-.19,9-3.66,8.83-9.19-.03-1.06-.05-1.59-.08-2.65-3.54.11-5.31.17-8.86.29.05,1.34.07,2.01.12,3.35,1.82-.06,2.72-.1,4.54-.16.02,2.61-1.7,4.32-4.67,4.42-3.35.12-5.55-2.29-5.72-6.69-.17-4.37,1.95-6.93,5.19-7.04,2.31-.08,3.92,1.05,4.55,3,1.82-.06,2.73-.09,4.55-.15-.31-1.8-1.21-3.35-2.52-4.52,1.98-.06,3.97-.11,5.95-.17.21,6.99.33,11.17.56,18.8,5.69-.17,8.54-.25,14.23-.38-.03-1.47-.05-2.2-.09-3.67-3.92.09-5.88.14-9.8.25-.06-2.01-.08-3.01-.14-5.02,3.62-.1,5.43-.15,9.04-.23-.03-1.47-.05-2.2-.09-3.67-3.62.09-5.43.13-9.06.23-.06-2-.08-3.01-.14-5.01,3.93-.11,5.89-.16,9.81-.25-.01-.54-.02-.99-.03-1.41.93-.02,1.85-.04,2.78-.06,0,.42.02.86.03,1.4,2.6-.06,3.9-.08,6.5-.13.13,6.94.2,10.42.34,17.36,1.76-.03,2.64-.05,4.4-.08-.12-6.95-.18-10.42-.3-17.36,2.6-.05,3.9-.07,6.5-.1,0-.52-.01-.95-.02-1.35,2.95-.03,5.9-.06,8.86-.09,0,.39,0,.81.01,1.32,2.6-.03,3.9-.04,6.5-.06.05,6.95.08,10.42.13,17.36,1.76-.01,2.64-.02,4.4-.03-.04-6.95-.06-10.42-.1-17.36,2.6-.01,3.9-.02,6.5-.03,0-.49,0-.89,0-1.26,1.52,0,3.04,0,4.56,0-1.85,1.84-2.97,4.59-2.97,8.11.01,6.85,4.27,10.79,9.89,10.81,5.58.01,9.89-3.88,9.94-10.76.02-3.5-1.08-6.24-2.91-8.1,4.4.03,8.76.06,13.07.11-.08,6.87-.12,11.04-.21,18.59,5.39.06,8.09.1,13.48.19.03-1.47.04-2.2.06-3.67-3.62-.06-5.43-.09-9.05-.14.08-6.09.13-9.51.2-14.93,4.07.05,8.1.1,12.09.17-.13,6.88-.21,11.05-.35,18.62,1.78.03,2.67.05,4.45.09.16-7.57.24-11.74.39-18.64,1.24.02,2.47.05,3.71.07-.15,6.9-.25,11.07-.42,18.65,1.78.04,2.67.06,4.45.1.06-2.39.09-3.58.15-5.97.9-1.05,1.36-1.57,2.26-2.61,2.23,3.52,3.34,5.28,5.55,8.8,2.13.06,3.2.09,5.33.16-3.02-4.74-4.54-7.11-7.6-11.84,2.51-2.85,4.06-4.6,6.14-6.94,1.44.03,2.86.07,4.29.11-.22,6.95-.35,11.13-.59,18.73,5.69.18,8.54.28,14.23.49.06-1.47.08-2.2.14-3.66-3.92-.15-5.88-.22-9.79-.35.07-2.01.1-3.01.17-5.02,3.62.12,5.43.18,9.04.32.05-1.47.08-2.2.14-3.66-3.62-.14-5.43-.2-9.06-.32.07-2,.1-3.01.17-5.01,3.92.13,5.89.2,9.81.35.02-.57.04-1.03.06-1.47,3.22.1,6.39.21,9.55.32-.02.45-.04.93-.06,1.53,2.6.11,3.9.17,6.49.28-.31,6.94-.47,10.41-.78,17.35,1.76.08,2.64.12,4.4.2.33-6.94.49-10.41.81-17.35,2.6.12,3.9.18,6.49.31.03-.66.06-1.17.08-1.66.96.04,1.93.08,2.89.12-.36,7.13-.58,11.31-.97,19.03,1.78.09,2.67.14,4.45.23.18-3.47.28-5.21.46-8.68,3.63.19,5.44.29,9.07.5-.2,3.47-.3,5.2-.5,8.67,1.78.1,2.66.15,4.44.26.46-7.76.71-11.95,1.13-19.17,1.24.06,2.48.13,3.71.19-.44,7.24-.69,11.42-1.17,19.2,5.69.35,8.53.53,14.21.91.1-1.46.15-2.19.25-3.66-3.91-.26-5.87-.39-9.78-.64.13-2,.19-3.01.31-5.01,3.61.23,5.42.34,9.03.59.1-1.46.15-2.2.24-3.66-3.62-.24-5.43-.36-9.05-.59.13-2,.19-3,.31-5,3.92.25,5.88.37,9.8.64.05-.8.09-1.38.13-1.98,3.5.21,6.95.42,10.35.64-.53,7.36-.83,11.54-1.39,19.38,1.78.13,2.67.19,4.44.32.2-2.72.3-4.08.5-6.8,1.5.11,2.25.17,3.75.28,4.85.37,7.9-2.28,8.23-6.47.19-2.38-.57-4.42-2.14-5.81,3.14.22,6.23.45,9.29.68-2.68,1.56-4.54,4.52-4.87,8.72-.55,6.83,3.37,11.11,8.98,11.58,5.57.47,10.18-3.05,10.79-9.91.38-4.25-1-7.51-3.44-9.49,3.36.28,6.68.56,9.94.84-1.65.97-2.74,2.53-2.91,4.51-.28,3.07,1.75,5.05,5.23,6.23.9.31,1.35.47,2.24.79,2.24.77,3.46,1.56,3.33,2.96-.15,1.52-1.72,2.43-3.97,2.22-2.31-.22-3.88-1.43-3.83-3.54-1.72-.16-2.59-.24-4.31-.39-.3,4.54,2.74,7.17,7.84,7.65,5.13.48,8.39-1.67,8.76-5.49.34-3.48-2.13-5.6-5.73-6.76-.74-.25-1.11-.38-1.85-.63-1.8-.59-3.25-1.42-3.1-2.91.14-1.33,1.43-2.23,3.62-2.02,2.14.2,3.36,1.29,3.37,2.95,1.71.16,2.57.25,4.28.41.16-1.98-.57-3.72-2-4.98,1.66.16,3.31.31,4.95.47-.07.76-.14,1.41-.24,2.38,2.59.26,3.89.39,6.48.65-.7,6.91-1.05,10.37-1.76,17.28,1.75.18,2.63.27,4.39.45.72-6.91,1.08-10.36,1.79-17.27,2.59.27,3.88.4,6.47.68.1-.97.17-1.62.25-2.38,1.17.13,2.34.26,3.49.38-.4,5.05-.64,7.97-1.07,13.4,1.5.16,2.26.25,3.76.41.74-5.39,1.14-8.3,1.84-13.3,106.78,12.22,145.46,29.04,145.46,29.04V0ZM370.55,59.68c-1.13.12-1.69.18-2.82.3-.58-5.33-.87-8-1.44-13.33,1.14-.12,1.71-.18,2.85-.31,3.96-.42,6.27,1.36,6.75,6.01.49,4.67-1.39,6.9-5.34,7.33ZM393.8,57.47c-3.23.31-5.58-1.88-6.01-6.32-.44-4.44,1.44-7.05,4.69-7.36,3.24-.31,5.6,1.89,6.02,6.33.42,4.44-1.47,7.04-4.7,7.35ZM487.35,50.43c-3.24.18-5.49-2.11-5.74-6.56s1.73-6.98,5-7.16c3.25-.18,5.51,2.12,5.74,6.58.23,4.45-1.77,6.97-5,7.14ZM507.68,42.03c-1.21.05-1.82.08-3.04.14-.12-2.54-.18-3.82-.29-6.36,1.21-.06,1.81-.08,3.02-.14,2.59-.12,3.89.97,3.98,3.06.09,2.08-1.11,3.18-3.68,3.3ZM613.5,47.16c-3.25,0-5.36-2.42-5.36-6.88s2.12-6.87,5.39-6.86c3.26,0,5.38,2.43,5.36,6.89-.02,4.46-2.16,6.86-5.39,6.85ZM776,46.72c-1.21-.09-1.82-.14-3.03-.23.21-2.8.31-4.2.52-6.99,1.21.09,1.81.13,3.02.23,2.59.19,3.73,1.68,3.57,3.77-.16,2.08-1.52,3.41-4.07,3.22ZM802.2,48.71c-.39,4.44-2.71,6.66-5.94,6.39-3.24-.27-5.15-2.85-4.78-7.29s2.68-6.67,5.94-6.4c3.25.27,5.17,2.87,4.78,7.31ZM419.77,50.95c-.07,0-.11,0-.19.02-3.67-4.46-5.71-6.92-9.08-10.96,2.76-.22,5.52-.43,8.29-.64.36,4.26.58,6.87.98,11.58ZM662.96,39.71c-.11,0-.17,0-.28,0,.07-2.83.11-4.59.17-6.91,2.01.04,4.01.08,6,.13-1.99,2.28-3.48,4-5.89,6.79ZM735.92,42.09c-3.63-.21-5.45-.31-9.08-.5.15-2.75.23-4.42.36-6.72,3.07.14,6.1.28,9.11.43-.13,2.34-.23,4.02-.39,6.8Z" fill="#231f20" stroke-width="0"/><path d="M850.64,59.37c-1.35-.15-2.58.84-2.73,2.16-.15,1.35.84,2.57,2.19,2.72,1.31.14,2.58-.83,2.73-2.18.15-1.33-.88-2.56-2.19-2.7Z" fill="#231f20" stroke-width="0"/></svg>