<?xml version="1.0" encoding="utf-8"?>
<!-- Generator: Adobe Illustrator 19.2.1, SVG Export Plug-In . SVG Version: 6.00 Build 0)  -->
<svg version="1.1" id="Layer_1" xmlns="http://www.w3.org/2000/svg" xmlns:xlink="http://www.w3.org/1999/xlink" x="0px" y="0px"
	 viewBox="0 0 150 85.2" enable-background="new 0 0 150 85.2" xml:space="preserve">
<g>
	<defs>
		<rect id="SVGID_1_" x="-0.5" width="150.5" height="85.2"/>
	</defs>
	<clipPath id="SVGID_2_">
		<use xlink:href="#SVGID_1_"  overflow="visible"/>
	</clipPath>
	<radialGradient id="SVGID_3_" cx="75.01" cy="76.23" r="71.44" gradientUnits="userSpaceOnUse">
		<stop  offset="0" style="stop-color:#FFFABC"/>
		<stop  offset="0.3433" style="stop-color:#FFFCD8;stop-opacity:0.6567"/>
		<stop  offset="0.7595" style="stop-color:#FFFEF4;stop-opacity:0.2405"/>
		<stop  offset="1" style="stop-color:#FFFFFF;stop-opacity:0"/>
	</radialGradient>
	<path clip-path="url(#SVGID_2_)" fill="url(#SVGID_3_)" d="M75,4.8c-39.5,0-71.4,32-71.4,71.4c0,39.5,32,71.4,71.4,71.4
		c39.5,0,71.4-32,71.4-71.4C146.5,36.8,114.5,4.8,75,4.8z M111.3,85.2c0.1-1.2,0.2-2.5,0.2-3.7c0-2.9-0.3-5.9-0.9-8.7
		c-0.5-2.3-1.1-4.6-2-6.8c-0.9-2.2-1.9-4.4-3.2-6.4c-0.5-0.7-0.7-1.6-0.7-2.5l-0.1-12c0-2.3-1.7-4.2-4-4.6l-3.6-0.5
		c-7.1-1-14.3-1.5-21.4-1.5s-14.3,0.5-21.4,1.5l-3.6,0.5c-2.3,0.3-4,2.3-4,4.6l-0.1,12c0,0.9-0.2,1.7-0.7,2.5
		c-1.3,2-2.3,4.2-3.2,6.4c-0.9,2.2-1.5,4.5-2,6.8c-0.6,2.9-0.9,5.8-0.9,8.7c0,1.2,0.1,2.5,0.2,3.7h-2.4c0-2.6,0.1-5.2,0.4-7.8
		l0.5-4.2l-1.3-1.9l-0.1-0.1V42c0-4.9,3.4-9.2,8.2-10.3h0v0c1.4-3.4,3.8-6.4,7-8.5c0.2-0.1,0.4-0.2,0.5-0.3c2.2-1.3,4.5-2.3,6.9-3.1
		c2.4-0.7,4.9-1.2,7.4-1.3c10.3-0.6,20.6,2.3,30.5,5.9c7.5,2.7,13,9.1,14.6,16.9l1.5,7.1l0.6,22.8l-0.1,0.1l-1.3,1.9l0.5,4.2
		c0.3,2.6,0.5,5.2,0.4,7.8H111.3z"/>
</g>
<g>
	<path fill="#E0B8B7" d="M36.9,71.2l1.3,1.9l-0.5,4.2c-0.3,2.6-0.5,5.2-0.4,7.8h-6.5c-0.6-2.2-1.2-4.3-1.5-6l-1.1-6.3
		c0-0.2,0-0.4,0-0.6c0-1.3,0.8-2.5,2-3c0.8-0.3,1.8-0.3,2.6,0L36.9,71.2z"/>
	<path fill="#E0B8B7" d="M75.5,38.5v46.7H39.7c-0.1-1.2-0.2-2.5-0.2-3.7c0-2.9,0.3-5.9,0.9-8.7c0.5-2.3,1.2-4.6,2-6.8
		c0.9-2.2,2-4.4,3.2-6.4c0.5-0.7,0.7-1.6,0.7-2.5l0.1-12c0-2.3,1.7-4.2,4-4.6l3.6-0.5C61.2,38.9,68.3,38.5,75.5,38.5z"/>
	<path fill="#E1C0BF" d="M110.6,72.7c0.6,2.9,0.9,5.8,0.9,8.7c0,1.2,0,2.5-0.2,3.7H75.5V38.5c7.2,0,14.3,0.5,21.4,1.5l3.6,0.5
		c2.3,0.3,4,2.3,4,4.6l0.1,12c0,0.9,0.2,1.7,0.7,2.5c1.3,2,2.3,4.2,3.2,6.4C109.5,68.1,110.1,70.4,110.6,72.7z"/>
	<path fill="#E1C0BF" d="M122.7,72.3c0,0.2,0,0.4,0,0.6l-1.1,6.3c-0.3,1.7-0.8,3.8-1.5,6h-6.5c0-2.6-0.1-5.2-0.4-7.8l-0.5-4.2
		l1.3-1.9l4-1.8c0.8-0.4,1.8-0.4,2.6,0C122,69.8,122.7,71,122.7,72.3z"/>
	<path fill="#2D1C1C" d="M114.1,71.2l-1.3,1.9l0.5,4.2c0.3,2.6,0.5,5.2,0.4,7.8h-2.4c0.1-1.2,0.2-2.5,0.2-3.7c0-2.9-0.3-5.9-0.9-8.7
		c-0.5-2.3-1.1-4.6-2-6.8c-0.9-2.2-1.9-4.4-3.2-6.4c-0.5-0.7-0.7-1.6-0.7-2.5l-0.1-12c0-2.3-1.7-4.2-4-4.6l-3.6-0.5
		c-7.1-1-14.3-1.5-21.4-1.5s-14.3,0.5-21.4,1.5l-3.6,0.5c-2.3,0.3-4,2.3-4,4.6l-0.1,12c0,0.9-0.2,1.7-0.7,2.5
		c-1.3,2-2.3,4.2-3.2,6.4c-0.9,2.2-1.5,4.5-2,6.8c-0.6,2.9-0.9,5.8-0.9,8.7c0,1.2,0.1,2.5,0.2,3.7h-2.4c0-2.6,0.1-5.2,0.4-7.8
		l0.5-4.2l-1.3-1.9l-0.1-0.1V42c0-4.9,3.4-9.2,8.2-10.3h0v0c1.4-3.4,3.8-6.4,7-8.5c0.2-0.1,0.4-0.2,0.5-0.3c2.2-1.3,4.5-2.3,6.9-3.1
		c2.4-0.7,4.9-1.2,7.4-1.3c10.3-0.6,20.6,2.3,30.5,5.9c7.5,2.7,13,9.1,14.6,16.9l1.5,7.1L114.1,71.2L114.1,71.2z"/>
	<polygon fill="#2D1C1C" points="105.7,70.6 97,62.9 84.8,62.9 82.9,66.7 	"/>
	<g>
		<path fill="#FFFFFF" d="M83.1,73.6l3.8-2.3c1.5-0.9,3.1-1.3,4.8-1.2h0c2,0.1,4,0.9,5.4,2.3l2.1,2l-5.6,1.2
			c-1.4,0.3-2.8,0.2-4.2-0.2L83.1,73.6z"/>
		<path fill="#3E642F" d="M94.6,72.1c-0.1,1.6-1.4,2.8-3,2.7c-1.6-0.1-2.8-1.4-2.7-3s0.7-1.6,2.9-1.6C93.4,70.2,94.7,70.6,94.6,72.1
			z"/>
		<circle cx="91.6" cy="72.2" r="1"/>
	</g>
	<polygon fill="#2D1C1C" points="45.3,70.6 54,62.9 66.2,62.9 68.1,66.7 	"/>
	<g>
		<path fill="#FFFFFF" d="M67.9,73.6L64,71.4c-1.5-0.9-3.1-1.3-4.8-1.2h0c-2,0.1-4,0.9-5.4,2.3l-2.1,2l5.6,1.2
			c1.4,0.3,2.8,0.2,4.2-0.2L67.9,73.6z"/>
		<path fill="#3E642F" d="M56.4,72.1c0.1,1.6,1.4,2.8,3,2.7c1.6-0.1,2.8-1.4,2.7-3c-0.1-1.6-0.7-1.6-2.9-1.6
			C57.6,70.2,56.3,70.6,56.4,72.1z"/>
		<circle cx="59.4" cy="72.2" r="1"/>
	</g>
</g>
</svg>
